<?xml version="1.0" standalone="no"?>
<!DOCTYPE svg PUBLIC "-//W3C//DTD SVG 20010904//EN"
 "http://www.w3.org/TR/2001/REC-SVG-20010904/DTD/svg10.dtd">
<svg version="1.0" xmlns="http://www.w3.org/2000/svg"
 width="1600.000000pt" height="1600.000000pt" viewBox="0 0 1600.000000 1600.000000"
 preserveAspectRatio="xMidYMid meet">
<metadata>
Created by potrace 1.15, written by Peter Selinger 2001-2017
</metadata>
<g transform="translate(0.000000,1600.000000) scale(0.100000,-0.100000)"
fill="#000000" stroke="none">
<path d="M7580 15989 c-678 -74 -1291 -353 -1770 -804 -507 -478 -817 -1065
-932 -1765 l-23 -135 -3 -2680 c-3 -2923 -5 -2790 53 -3080 55 -272 127 -480
260 -750 159 -323 314 -537 584 -805 497 -496 1119 -791 1821 -866 256 -27
610 -10 875 42 1024 200 1880 908 2259 1866 83 210 143 441 183 704 16 100 18
333 21 2749 3 2748 3 2758 -39 3010 -175 1045 -893 1928 -1884 2318 -223 88
-414 139 -670 179 -149 23 -588 33 -735 17z m644 -1238 c469 -95 881 -372
1147 -769 69 -104 151 -256 189 -353 l20 -49 -273 0 c-309 0 -364 -8 -484 -66
-56 -27 -96 -56 -153 -113 -132 -131 -183 -248 -184 -426 -2 -189 42 -305 159
-422 56 -56 92 -82 156 -113 151 -71 164 -73 547 -78 l342 -3 0 -299 0 -299
-362 -3 c-363 -4 -363 -4 -430 -29 -191 -74 -319 -204 -386 -391 -36 -102 -38
-267 -3 -378 56 -183 186 -311 380 -374 125 -41 180 -46 498 -46 l303 0 0
-300 0 -300 -1815 0 -1815 0 0 300 0 300 309 0 c335 0 399 7 526 55 245 92
376 282 377 550 1 173 -57 313 -181 435 -88 86 -166 132 -277 160 -69 18 -111
20 -416 20 l-338 0 0 299 0 300 348 4 c388 4 399 6 550 78 202 97 312 279 314
519 1 114 -18 195 -68 290 -73 139 -190 240 -344 294 l-85 31 -297 3 c-164 2
-298 5 -298 8 0 16 100 225 139 292 288 483 747 799 1290 887 135 22 475 14
615 -14z"/>
<path d="M2939 9330 c-132 -21 -235 -75 -321 -169 -72 -78 -114 -152 -157
-274 l-36 -102 -3 -365 c-6 -633 29 -1032 128 -1478 352 -1574 1389 -2912
2835 -3658 352 -182 775 -343 1143 -435 l132 -33 0 -677 0 -678 -967 -3 -968
-3 -77 -26 c-43 -15 -100 -41 -128 -59 -108 -69 -200 -199 -251 -355 -22 -67
-23 -87 -27 -422 l-3 -353 3641 0 3641 0 -3 358 c-4 357 -4 357 -31 437 -33
99 -90 187 -166 257 -73 68 -126 99 -227 135 l-79 28 -962 3 -963 3 0 677 0
677 153 38 c83 21 244 69 357 107 2026 674 3479 2469 3705 4577 36 340 49
1116 20 1252 -53 254 -198 444 -390 512 -87 31 -199 42 -287 30 -240 -33 -401
-178 -494 -446 l-28 -80 -7 -485 c-5 -345 -11 -528 -23 -634 -59 -526 -194
-991 -422 -1447 -101 -203 -158 -301 -285 -489 -579 -861 -1471 -1487 -2478
-1739 -362 -91 -642 -125 -1036 -124 -298 0 -449 12 -723 58 -1137 193 -2174
874 -2815 1850 -371 566 -588 1167 -673 1865 -13 102 -18 250 -21 605 -4 516
-6 539 -68 686 -81 194 -224 327 -395 367 -69 16 -179 22 -241 12z"/>
</g>
</svg>
