<?xml version="1.0" standalone="no"?>
<!DOCTYPE svg PUBLIC "-//W3C//DTD SVG 20010904//EN"
 "http://www.w3.org/TR/2001/REC-SVG-20010904/DTD/svg10.dtd">
<svg version="1.0" xmlns="http://www.w3.org/2000/svg"
 width="1280.000000pt" height="929.000000pt" viewBox="0 0 1280.000000 929.000000"
 preserveAspectRatio="xMidYMid meet">
<metadata>
Created by potrace 1.15, written by Peter Selinger 2001-2017
</metadata>
<g transform="translate(0.000000,929.000000) scale(0.100000,-0.100000)"
fill="#000000" stroke="none">
<path d="M6589 8760 c-553 -43 -1004 -238 -1324 -571 -45 -46 -95 -101 -112
-123 l-31 -39 -65 36 c-149 84 -341 144 -546 173 -161 22 -506 15 -679 -15
-903 -155 -1780 -696 -2347 -1446 -180 -237 -352 -547 -443 -795 -34 -91 -54
-130 -98 -185 -128 -160 -291 -436 -333 -562 l-14 -42 131 -198 c72 -109 803
-1217 1625 -2462 821 -1246 1498 -2266 1503 -2267 5 -2 36 36 69 84 391 565
1016 1082 1780 1471 750 382 1559 601 2222 601 170 0 430 -22 444 -38 4 -4 14
-43 24 -87 43 -200 122 -383 232 -538 117 -164 323 -347 536 -476 99 -60 405
-211 427 -211 10 0 30 37 57 103 58 142 57 137 41 137 -25 0 -353 168 -443
227 -292 193 -469 403 -554 659 -30 88 -65 234 -58 240 2 2 75 47 163 99 571
345 1189 553 1869 631 210 24 619 24 815 1 356 -43 647 -132 816 -248 l42 -28
90 91 90 92 -42 55 c-24 31 -41 61 -40 66 2 6 -362 507 -809 1115 -1450 1974
-2319 3156 -2649 3605 l-323 440 -105 43 c-412 170 -903 297 -1340 347 -166
19 -479 26 -621 15z m396 -250 c369 -24 738 -96 1110 -216 198 -64 380 -135
401 -157 12 -12 336 -449 719 -972 821 -1118 1512 -2058 2017 -2745 201 -272
364 -496 363 -498 -1 -1 -56 33 -121 76 -360 239 -703 394 -1034 467 -150 33
-268 45 -437 46 -301 0 -547 -58 -818 -193 -229 -115 -388 -232 -610 -450
-150 -147 -161 -156 -176 -140 -16 17 -3049 4126 -3063 4150 -12 21 234 259
343 331 266 176 584 277 949 300 182 12 191 12 357 1z m-2410 -540 c55 -12
127 -30 160 -41 107 -35 258 -117 355 -193 l95 -74 1503 -2035 c826 -1119
1502 -2038 1502 -2041 0 -3 -32 21 -72 54 -259 217 -598 359 -958 401 -150 17
-462 7 -613 -20 -974 -175 -1940 -885 -2613 -1922 -54 -82 -101 -146 -105
-142 -4 5 -142 213 -306 463 -165 250 -740 1123 -1277 1939 -825 1252 -977
1489 -972 1511 2 15 28 80 56 146 297 692 935 1326 1696 1685 280 133 597 233
866 273 155 24 167 24 383 21 157 -3 221 -8 300 -25z"/>
</g>
</svg>
